<svg xmlns="http://www.w3.org/2000/svg" width="230.584" height="84.319" viewBox="0 0 230.584 84.319">
  <g id="logo_copel" transform="translate(-84.3 -162.1)">
    <path id="Caminho_279" data-name="Caminho 279" d="M87.911,162.1h20.643l8.477,14.959H104.943l8.554,14.769H92.854L84.3,177.059H95.895Z" fill="#f56600" fill-rule="evenodd"/>
    <path id="Caminho_280" data-name="Caminho 280" d="M302.672,162.1H281.954L273.4,177.059h12.165l-8.63,14.769h20.719l8.477-14.769H294.366Z" transform="translate(-153.156)" fill="#f56600" fill-rule="evenodd"/>
    <path id="Caminho_281" data-name="Caminho 281" d="M88.35,373.181h20.224l8.4-14.864H105.1l8.4-14.617H93.2l-8.5,14.617H96.1Z" transform="translate(-0.324 -147.082)" fill="#f56600" fill-rule="evenodd"/>
    <path id="Caminho_282" data-name="Caminho 282" d="M303.572,371.075H282.854L274.3,355.964h12.165l-8.63-14.864h20.719l8.382,14.864H295.266Z" transform="translate(-153.885 -144.976)" fill="#f56600" fill-rule="evenodd"/>
    <path id="Caminho_283" data-name="Caminho 283" d="M564.751,247.845q-.969-5.047-6.5-5.132c-5.4.038-8.078,3.745-8.04,11.177a21.875,21.875,0,0,0,1.293,8.42c1.178,2.794,3.478,4.2,6.9,4.239a7.243,7.243,0,0,0,4.41-1.426A5.677,5.677,0,0,0,565,261.151l.076-.874h6.71l-.076.95a9.95,9.95,0,0,1-2.813,6.254,12.678,12.678,0,0,1-5.968,3.478,15.485,15.485,0,0,1-4.733.665q-7.385-.057-11.31-4.847c-2.243-2.756-3.383-6.748-3.383-11.994a26.649,26.649,0,0,1,1.045-7.565,12,12,0,0,1,5.246-7.185,16.288,16.288,0,0,1,8.706-2.414,18.714,18.714,0,0,1,5.531.893,12.01,12.01,0,0,1,4.6,2.737,10.341,10.341,0,0,1,2.091,3.022,8.8,8.8,0,0,1,.855,3.383v.988h-6.71l-.114-.8Zm11.272,6.957a24.9,24.9,0,0,1,1.54-8.934,11.058,11.058,0,0,1,2.908-4.334,12.416,12.416,0,0,1,4.106-2.7A18.825,18.825,0,0,1,591.3,237.6c4.524.038,8.078,1.331,10.7,3.9a12.977,12.977,0,0,1,3.022,4.5,23.219,23.219,0,0,1,1.426,8.344q-.086,17.193-15.092,17.24-15.339-.029-15.339-16.784Zm6.71-.361c-.038,8.1,2.794,12.127,8.535,12.108,5.588.057,8.4-3.916,8.458-11.956a19.731,19.731,0,0,0-1.369-7.6c-1.121-2.832-3.478-4.258-7.052-4.258a9.669,9.669,0,0,0-3.554.646c-3.383,1.255-5.056,4.961-5.018,11.063Zm29.082-16.157h11.4c1.274.038,2.471.1,3.593.209a13.229,13.229,0,0,1,3.288.8,8.156,8.156,0,0,1,4.182,3.669,10.579,10.579,0,0,1,1.35,5.436q.028,5.474-3.536,7.907c-1.958,1.331-4.828,2.072-8.592,2.2l-2.3.038h-2.7V271H611.8V238.284Zm6.729,5.075v10.074h2.737a22.43,22.43,0,0,0,2.775-.133c3.193-.323,4.828-2,4.866-5.018.019-3.174-1.768-4.79-5.36-4.885l-2.3-.019h-2.718Zm41.969-5.075v5.075h-14.9v8.173H659.6v5.075H645.61v9.276h15.377v5.075H638.9V238.265h21.612Zm11.671,0v27.6h13.762v5.075H665.473V238.265h6.71Z" transform="translate(-371.916 -61.149)" fill="#f56600" fill-rule="evenodd"/>
    <path id="Caminho_284" data-name="Caminho 284" d="M550.589,486.817l-.038.3a7.593,7.593,0,0,0,1.159.608,2.964,2.964,0,0,0,1.083.247h0a.526.526,0,0,1,.171.019c.057.019.1.038.152.057a4.265,4.265,0,0,0,2.148-.722,7.172,7.172,0,0,0,1.92-2,10.473,10.473,0,0,0,1.407-3.022,13.458,13.458,0,0,0,.475-3.592,6.736,6.736,0,0,0-.114-1.312,2.783,2.783,0,0,0-.361-.969,1.658,1.658,0,0,0-.551-.589,1.347,1.347,0,0,0-.741-.19,2.219,2.219,0,0,0-1.426.665,9.22,9.22,0,0,0-1.578,2.034,28.342,28.342,0,0,0-1.749,3.5c-.627,1.388-1.273,3.06-1.958,4.961Zm-.266,1.692c-.133.7-.266,1.35-.418,1.958-.171.646-.342,1.236-.532,1.787a9.822,9.822,0,0,1-.741,1.673c-.247.4-.494.589-.7.589a.677.677,0,0,1-.19-.038h0a.513.513,0,0,1-.152-.133h0a.775.775,0,0,1-.1-.171h0a.676.676,0,0,1-.038-.19,20.922,20.922,0,0,1,1.007-4.334c.1-.323.19-.646.3-.969.1-.3.209-.627.3-.95l-.323-.209h0a16.6,16.6,0,0,0-1.977-1.2,4.1,4.1,0,0,0-1.92-.513,4.481,4.481,0,0,0-1.331.323,11.884,11.884,0,0,0-1.768.893c-.779.456-1.54.988-2.243,1.5-.912.684-1.692,1.331-2.2,1.806a.73.73,0,0,1-.475.171.607.607,0,0,1-.456-.209.73.73,0,0,1-.171-.475.607.607,0,0,1,.209-.456,28.639,28.639,0,0,1,2.319-1.9,28.279,28.279,0,0,1,2.357-1.578,12.9,12.9,0,0,1,2.072-1.007,5.265,5.265,0,0,1,1.673-.38,5.2,5.2,0,0,1,2.414.589,17.314,17.314,0,0,1,2.262,1.35l.038.038c.228-.608.456-1.255.7-1.9.266-.665.532-1.35.817-2.034.57-1.35,1.121-2.528,1.654-3.516a19.354,19.354,0,0,1,1.6-2.509,7.106,7.106,0,0,1,1.559-1.5,2.865,2.865,0,0,1,1.559-.513,2.157,2.157,0,0,1,1.159.3,2.672,2.672,0,0,1,.893.893h0a4.735,4.735,0,0,1,.57,1.407,7.523,7.523,0,0,1,.19,1.806,14.476,14.476,0,0,1-.532,4.087,9.893,9.893,0,0,1-1.6,3.269,7.394,7.394,0,0,1-2.2,2.034,6.142,6.142,0,0,1-2.68.817.631.631,0,0,1-.19.114.482.482,0,0,1-.228.038,3.862,3.862,0,0,1-1.293-.228,8.254,8.254,0,0,1-1.2-.532Zm27.352.874c.494-.38,1.026-.8,1.635-1.274l.038-.076h0l.038-.1h0a6.241,6.241,0,0,1,.456-.855h0a6.581,6.581,0,0,1,.646-.836h0a9.349,9.349,0,0,1,1.369-1.236,9.855,9.855,0,0,1,3.307-1.559,7.04,7.04,0,0,1,1.654-.209,6.176,6.176,0,0,1,.627.038c.19.019.38.057.57.1a2.711,2.711,0,0,1,.513.171,3.3,3.3,0,0,1,.513.266l.038.019v.038l-.057.969v.114l-.1-.057c-.171-.114-.342-.209-.513-.3h0c-.171-.076-.342-.152-.513-.209h0a2.407,2.407,0,0,0-.532-.114,5.377,5.377,0,0,0-.551-.038,6.338,6.338,0,0,0-1.426.171,7.724,7.724,0,0,0-1.483.532,8.888,8.888,0,0,0-1.388.817,7.015,7.015,0,0,0-1.1,1.007,4.7,4.7,0,0,0-.532.722,5.8,5.8,0,0,0-.4.76h0a3.959,3.959,0,0,0-.323,1.5,3.08,3.08,0,0,0,.1.76,1.587,1.587,0,0,0,.266.57,1.091,1.091,0,0,0,.418.361,1.132,1.132,0,0,0,.513.114,1.559,1.559,0,0,0,.836-.3,6.168,6.168,0,0,0,1.064-.931h0a24.061,24.061,0,0,0,1.521-1.9q.941-1.255,2.224-3.136l.019-.038h.038l1.007.1h.1l-.038.076-2.414,5.17-.057.171h0l-.019.057h0a.208.208,0,0,0-.019.1v.114h0c0,.019.019.038.038.057h0c.019.019.019.038.038.038h.019a1.525,1.525,0,0,0,.418-.209c.228-.133.532-.342.931-.627h0c.4-.285.855-.627,1.35-1.007s1.064-.817,1.673-1.312l.114-.1v1.2l-.019.019-.3.247c-1.464,1.14-2.642,2-3.516,2.566a4.654,4.654,0,0,1-1.787.855.434.434,0,0,1-.209-.057,1.051,1.051,0,0,1-.171-.133h0a.784.784,0,0,1-.133-.209h0a.962.962,0,0,1-.038-.247.587.587,0,0,1,.019-.171h0a1.768,1.768,0,0,1,.076-.247,1.217,1.217,0,0,1,.114-.3h0a2.688,2.688,0,0,1,.152-.342h0l.532-1.217a12.52,12.52,0,0,1-.779,1.007,7.949,7.949,0,0,1-1.026,1.064,3.7,3.7,0,0,1-.95.589,2.453,2.453,0,0,1-.95.209,1.994,1.994,0,0,1-.893-.209h0a2.113,2.113,0,0,1-.7-.608,2.6,2.6,0,0,1-.456-.95,4.539,4.539,0,0,1-.152-1.178v-.266l-.1.076h0q-2.053,1.6-3.307,2.395a4.585,4.585,0,0,1-1.711.817.506.506,0,0,1-.228-.057h0a.491.491,0,0,1-.171-.171h0a.59.59,0,0,1-.114-.247,1.479,1.479,0,0,1-.038-.3.525.525,0,0,1,.019-.171c.019-.057.038-.133.057-.209a2.309,2.309,0,0,1,.1-.266c.038-.1.076-.19.114-.3h0l2.148-4.79h0l.038-.1h0q.086-.2.228-.513a5.752,5.752,0,0,0,.247-.57.821.821,0,0,0,.076-.266c0-.076-.076-.152-.247-.209a3.083,3.083,0,0,0-.779-.133c-.19-.019-.342-.019-.494-.038-.114-.019-.228-.019-.342-.038-.247.494-.532.969-.817,1.426a13.145,13.145,0,0,1-.988,1.312c-.3.342-.608.684-.95,1.007s-.7.627-1.083.931l-.133.1c-.836.646-1.559,1.217-2.186,1.673s-1.14.817-1.54,1.083a7.942,7.942,0,0,1-1.045.589,1.939,1.939,0,0,1-.722.209.506.506,0,0,1-.228-.057h0a.49.49,0,0,1-.171-.171h0a.589.589,0,0,1-.114-.247,1.479,1.479,0,0,1-.038-.3.527.527,0,0,1,.019-.171,1.974,1.974,0,0,0,.057-.228,2.3,2.3,0,0,1,.1-.266l.114-.285,2.129-4.562q-1.283,1.312-2.395,2.395c-.836.8-1.635,1.5-2.357,2.091a17.571,17.571,0,0,1-1.806,1.331,2.512,2.512,0,0,1-1.121.456.607.607,0,0,1-.266-.057.539.539,0,0,1-.209-.152.5.5,0,0,1-.114-.247,1.707,1.707,0,0,1-.038-.342.851.851,0,0,1,.019-.209l.057-.228a2.311,2.311,0,0,1,.1-.266c.038-.076.076-.171.114-.247h0l1.369-2.7c-.057.038-.114.1-.171.133a3.437,3.437,0,0,1-.437.342h0c-.152.114-.285.228-.418.323-.152.1-.285.19-.437.285l-.1.057v-1.1l.019-.019c.323-.247.646-.475.931-.722s.57-.494.817-.741.456-.456.608-.627a1.6,1.6,0,0,0,.285-.4h0l1.121-2.3.019-.038h1.254l-.038.1-3.174,6.653-.019.076h0a1.756,1.756,0,0,0-.057.171h0a.172.172,0,0,0-.019.1v.057a.371.371,0,0,0,.019.152.145.145,0,0,0,.038.1h0c.019.019.019.038.038.038h.038a2.146,2.146,0,0,0,.912-.532c.475-.361,1.121-.912,1.92-1.635s1.616-1.54,2.452-2.414c.817-.874,1.673-1.806,2.509-2.832l.019-.019h1.236l-.038.1-3.269,7.09h0l-.019.038a1.314,1.314,0,0,0-.076.19h0c0,.019-.019.057-.019.076h0v.114h0c0,.019.019.038.019.057h0c.019.019.019.038.038.038l.019.019a1.586,1.586,0,0,0,.38-.19q.314-.2.855-.57h0c.342-.247.741-.551,1.236-.912.456-.342,1.007-.76,1.6-1.236l.1-.076h0l.19-.152a9.268,9.268,0,0,0,.817-.722,10.242,10.242,0,0,0,.741-.817h0a9.591,9.591,0,0,0,.817-1.141,9.052,9.052,0,0,0,.646-1.2.982.982,0,0,1-.323-.323,1.168,1.168,0,0,1-.1-.228,1.44,1.44,0,0,1-.019-.285,1.661,1.661,0,0,1,.057-.456,1.423,1.423,0,0,1,.19-.38.919.919,0,0,1,.3-.247.851.851,0,0,1,.38-.076.888.888,0,0,1,.323.057.63.63,0,0,1,.266.19h0a.8.8,0,0,1,.171.266.888.888,0,0,1,.057.323v.171c0,.057-.019.1-.019.152h0a.586.586,0,0,1-.038.152l-.019.057h.551l.076-.019h.057a4.192,4.192,0,0,1,.912.076,1.731,1.731,0,0,1,.627.228h0a.919.919,0,0,1,.361.4,1.389,1.389,0,0,1,.114.57,1.488,1.488,0,0,1-.038.266h0c-.019.1-.057.209-.076.323h0a4.781,4.781,0,0,1-.19.494c-.1.209-.19.475-.342.779h0l-1.825,4.049-.038.133c-.019.038-.019.076-.038.114h0a.206.206,0,0,0-.019.1v.1h0c0,.019.019.038.019.057h0c.019.019.019.038.038.038h0a.019.019,0,0,1,.019.019,1.568,1.568,0,0,0,.4-.19,10.224,10.224,0,0,0,.912-.627A8.572,8.572,0,0,1,577.675,489.383Z" transform="translate(-366.003 -253.019)" fill="#f56600"/>
    <g id="Grupo_426" data-name="Grupo 426" transform="translate(232.922 220.948)">
      <path id="Caminho_285" data-name="Caminho 285" d="M922.2,486.716l-.076.057h0q-2.053,1.6-3.307,2.395a4.457,4.457,0,0,1-1.711.817.477.477,0,0,1-.418-.228h0a.667.667,0,0,1-.114-.266h0a1.479,1.479,0,0,1-.038-.3.851.851,0,0,1,.019-.209c.019-.076.038-.133.057-.228h0a2.13,2.13,0,0,1,.1-.247c.038-.076.076-.171.133-.266l1.407-2.737c-.665.589-1.388,1.141-2.091,1.673-.8.608-1.6,1.216-2.338,1.9h0c-.532.475-1.064.988-1.578,1.5s-1.007,1.045-1.5,1.6c-.4,1.026-.76,1.882-1.064,2.566a13.066,13.066,0,0,1-.741,1.483h0a2.547,2.547,0,0,1-.589.7.925.925,0,0,1-.589.247.526.526,0,0,1-.247-.057.539.539,0,0,1-.19-.171h0a.587.587,0,0,1-.114-.247,1.475,1.475,0,0,1-.038-.3,4.171,4.171,0,0,1,.209-1.179,8.635,8.635,0,0,1,.608-1.426h0a12.3,12.3,0,0,1,.931-1.5,15.924,15.924,0,0,1,1.178-1.407l1.863-4.144c-.361.456-.7.874-1.026,1.216a12.4,12.4,0,0,1-1.122,1.121h0a3.717,3.717,0,0,1-.95.627,2.175,2.175,0,0,1-.874.209,2.14,2.14,0,0,1-.912-.209,2.236,2.236,0,0,1-.722-.627,3.291,3.291,0,0,1-.475-.969h0a4.246,4.246,0,0,1-.152-1.141c-1.273.988-2.319,1.73-3.1,2.224a4.271,4.271,0,0,1-1.673.779.506.506,0,0,1-.228-.057.373.373,0,0,1-.171-.171h0a.589.589,0,0,1-.114-.247,1.475,1.475,0,0,1-.038-.3.527.527,0,0,1,.019-.171c.019-.057.038-.133.057-.209h0a2.305,2.305,0,0,1,.1-.266c.038-.1.076-.19.114-.3h0l2.148-4.79h0l.038-.1h0c.057-.133.133-.285.228-.513a5.76,5.76,0,0,0,.247-.57.821.821,0,0,0,.076-.266c0-.076-.076-.152-.247-.209a3.08,3.08,0,0,0-.779-.133c-.19-.019-.342-.019-.494-.038-.114-.019-.228-.019-.342-.038-.247.494-.532.969-.817,1.426a13.145,13.145,0,0,1-.988,1.312c-.3.342-.627.7-.969,1.026s-.722.646-1.083.931h0c-.931.741-1.749,1.35-2.414,1.844a13.164,13.164,0,0,1-1.673,1.064h0a5.985,5.985,0,0,1-1.235.494,4.154,4.154,0,0,1-1.141.171,2.955,2.955,0,0,1-1.121-.19,2.6,2.6,0,0,1-.855-.57h0a2.493,2.493,0,0,1-.532-.931,4.131,4.131,0,0,1-.171-1.236h0c-1.274.988-2.319,1.73-3.1,2.224a4.271,4.271,0,0,1-1.673.779.5.5,0,0,1-.418-.228.667.667,0,0,1-.114-.266,1.483,1.483,0,0,1-.038-.3.525.525,0,0,1,.019-.171c.019-.057.038-.133.057-.209a1.32,1.32,0,0,1,.1-.247h0a1.906,1.906,0,0,1,.133-.285h0l2.49-5.246h0l.171-.342.1-.19h0c.019-.038.019-.057.038-.1v-.038a.327.327,0,0,0-.019-.152.019.019,0,0,0-.019-.019h0a.778.778,0,0,0-.285.133h0c-.152.095-.361.247-.627.437h0c-.266.19-.532.418-.836.665-.285.247-.608.513-.931.817h0c-.4.361-.8.7-1.179,1.064s-.741.722-1.1,1.083-.684.722-1.007,1.064-.608.684-.874,1.007l-.152.19h0l-.19.247h0a4.236,4.236,0,0,1-.741.779,1.147,1.147,0,0,1-.646.266.526.526,0,0,1-.247-.057.483.483,0,0,1-.19-.152h0a.519.519,0,0,1-.114-.228,1.469,1.469,0,0,1-.038-.285,2.7,2.7,0,0,1,.285-.817c.19-.4.475-.95.855-1.635.171-.323.323-.589.475-.855l.19-.361c-.057.057-.114.1-.171.152-.152.133-.3.247-.456.361-.589.456-1.369,1.007-2.148,1.521-.7.456-1.426.893-2,1.2h0a9.38,9.38,0,0,1-2.262.836,10.59,10.59,0,0,1-2.509.285,4.051,4.051,0,0,1-1.312-.19,3.086,3.086,0,0,1-1.007-.57,2.762,2.762,0,0,1-.646-.912,3.392,3.392,0,0,1,.057-2.49,4.268,4.268,0,0,1,.8-1.236,8.446,8.446,0,0,1,1.331-1.216,17.3,17.3,0,0,1,1.844-1.178,6.632,6.632,0,0,1-.418-.684,5.916,5.916,0,0,1-.342-.8,4.142,4.142,0,0,1-.209-.836,6.487,6.487,0,0,1-.076-.855,5.627,5.627,0,0,1,.152-1.236,7.655,7.655,0,0,1,.475-1.293h0a8.36,8.36,0,0,1,.741-1.255,6.857,6.857,0,0,1,.988-1.121,7.566,7.566,0,0,1,1.141-.95,7.771,7.771,0,0,1,1.293-.722,6.652,6.652,0,0,1,1.35-.456h0a6.173,6.173,0,0,1,1.312-.152,3.068,3.068,0,0,1,.969.133,2.333,2.333,0,0,1,.779.4,1.725,1.725,0,0,1,.513.608,1.658,1.658,0,0,1,.171.76,3.621,3.621,0,0,1-.722,1.54,33,33,0,0,1-2.129,2.756c-.4.475-.7.836-.931,1.121h0l-.152.171-.057.057-.057-.057-.665-.7-.038-.038.038-.038c.152-.19.3-.38.475-.589.209-.266.456-.57.684-.855h0c.76-.95,1.35-1.711,1.73-2.281a2.853,2.853,0,0,0,.57-1.159.454.454,0,0,0-.1-.266,1.1,1.1,0,0,0-.266-.228,2.347,2.347,0,0,0-.437-.152,2.636,2.636,0,0,0-.57-.057,3.389,3.389,0,0,0-.836.114,5.36,5.36,0,0,0-.95.361h0c-.342.171-.665.361-1.007.57a11.27,11.27,0,0,0-.969.76h0a8.61,8.61,0,0,0-1.007,1.045,7.985,7.985,0,0,0-.741,1.1,4.971,4.971,0,0,0-.456,1.121,4.4,4.4,0,0,0-.152,1.1,3.724,3.724,0,0,0,.076.779,6.283,6.283,0,0,0,.228.8h0c.114.266.247.57.418.893s.38.646.608,1.007l.038.057-.057.038c-.779.418-1.445.836-2.015,1.216a8.525,8.525,0,0,0-1.331,1.083,3.863,3.863,0,0,0-.741,1.026,2.262,2.262,0,0,0-.247,1.026,1.938,1.938,0,0,0,.133.76,1.545,1.545,0,0,0,.4.57,1.473,1.473,0,0,0,.627.361,2.868,2.868,0,0,0,.836.114,9.775,9.775,0,0,0,1.92-.152,6.328,6.328,0,0,0,2.015-.684c.7-.38,1.426-.817,2.167-1.273.684-.437,1.35-.893,2.015-1.388h0c.323-.247.57-.418.779-.589.209-.19.4-.361.646-.608h0a8.662,8.662,0,0,0,.608-.646,2.05,2.05,0,0,0,.3-.437l1.121-2.3.019-.038h1.255l-.038.1-2.908,6.1c1.1-1.083,2.091-2.034,2.946-2.813.931-.855,1.711-1.559,2.338-2.072a14.493,14.493,0,0,1,1.616-1.159,2.322,2.322,0,0,1,1.064-.4.321.321,0,0,1,.19.057.388.388,0,0,1,.152.152h0a.64.64,0,0,1,.076.228,1.26,1.26,0,0,1,.019.285.714.714,0,0,1-.019.19h0a1.165,1.165,0,0,1-.057.209c-.019.076-.057.152-.1.266s-.1.228-.152.38h0l-2.642,5.7-.057.133a.38.38,0,0,0-.057.152v.019h0a.143.143,0,0,0-.019.076v.076c0,.019.019.038.019.057l.038.038h0l.019.019a1.3,1.3,0,0,0,.418-.209c.228-.133.532-.342.931-.627h0c.323-.228.7-.513,1.1-.817s.874-.665,1.369-1.064c.038-.133.1-.266.133-.418a4.361,4.361,0,0,1,.19-.437h0a6.616,6.616,0,0,1,.627-1.045,8.488,8.488,0,0,1,.874-1.007,12.562,12.562,0,0,1,1.1-.969,11.37,11.37,0,0,1,1.121-.741h0a5.1,5.1,0,0,1,1.083-.456,3.677,3.677,0,0,1,.988-.152,2.62,2.62,0,0,1,.7.1h0a1.2,1.2,0,0,1,.532.285h0a1.22,1.22,0,0,1,.342.475,1.509,1.509,0,0,1,.114.608,3.189,3.189,0,0,1-.456,1.654,5.068,5.068,0,0,1-1.35,1.464,6.32,6.32,0,0,1-1.977,1.026,7.725,7.725,0,0,1-2.338.342h-.627a1.2,1.2,0,0,1-.038.133c-.019.057-.019.114-.038.171,0,.057-.019.114-.019.171h0v.171a3.283,3.283,0,0,0,.1.8,1.39,1.39,0,0,0,.3.551h0a1.285,1.285,0,0,0,.494.342,2.021,2.021,0,0,0,.7.114,3.915,3.915,0,0,0,.988-.152h0a6.645,6.645,0,0,0,1.1-.475h0a17.341,17.341,0,0,0,1.559-1.026c.665-.475,1.464-1.083,2.376-1.806h0a8.81,8.81,0,0,0,.931-.779,9.948,9.948,0,0,0,.855-.931h0a9.6,9.6,0,0,0,.817-1.14,9.059,9.059,0,0,0,.646-1.2.668.668,0,0,1-.171-.133,1.33,1.33,0,0,1-.152-.19,1.166,1.166,0,0,1-.1-.228,1.446,1.446,0,0,1-.019-.285,1.661,1.661,0,0,1,.057-.456,1.425,1.425,0,0,1,.19-.38.919.919,0,0,1,.3-.247.851.851,0,0,1,.38-.076.888.888,0,0,1,.323.057.631.631,0,0,1,.266.19h0a.8.8,0,0,1,.171.266.887.887,0,0,1,.057.323,1.846,1.846,0,0,1-.019.323h0a.588.588,0,0,1-.038.152l-.019.057h.228a1.952,1.952,0,0,0,.323-.019h.133a4.194,4.194,0,0,1,.912.076,1.731,1.731,0,0,1,.627.228h0a.919.919,0,0,1,.361.4,1.389,1.389,0,0,1,.114.57,1.493,1.493,0,0,1-.038.266c-.019.1-.057.209-.076.323h0a4.761,4.761,0,0,1-.19.494c-.1.209-.19.475-.342.779h0l-1.825,4.049-.038.114h0l-.038.114h0a.207.207,0,0,0-.019.1h0v.114h0c0,.019.019.038.019.057h0c.019.019.019.038.038.038a.019.019,0,0,1,.019.019,5.239,5.239,0,0,0,1.312-.817c.323-.228.684-.513,1.1-.817.4-.3.855-.665,1.35-1.045l.114-.342h0c.038-.114.1-.228.133-.342a4.81,4.81,0,0,1,.532-.893,8.07,8.07,0,0,1,.76-.874,11.344,11.344,0,0,1,1.388-1.14,9.634,9.634,0,0,1,1.559-.874,10.673,10.673,0,0,1,1.578-.57,5.734,5.734,0,0,1,1.464-.19,3.5,3.5,0,0,1,.779.076,2.611,2.611,0,0,1,.684.209h0a3.83,3.83,0,0,1,.608.342,3.218,3.218,0,0,1,.532.494l.038.038-.038.038-.532.76-.038.076-.057-.057a4.848,4.848,0,0,0-.456-.437,2.515,2.515,0,0,0-.475-.3,2.17,2.17,0,0,0-.494-.171,2.632,2.632,0,0,0-.57-.057,4.224,4.224,0,0,0-1.026.133,7.718,7.718,0,0,0-1.216.418,9.761,9.761,0,0,0-1.255.646,9.6,9.6,0,0,0-1.141.817h0a7.044,7.044,0,0,0-.855.817h0a5.927,5.927,0,0,0-.608.855,4.551,4.551,0,0,0-.361.912,3.941,3.941,0,0,0-.114.95,3.182,3.182,0,0,0,.076.779,1.474,1.474,0,0,0,.247.551h0a.893.893,0,0,0,.38.323,1.158,1.158,0,0,0,.532.114c.437,0,1.122-.456,2.034-1.369q.684-.684,1.6-1.768c.589-.722,1.255-1.559,1.977-2.528l.019-.038h.038l1.045.076h.1l-.038.1-2.756,6.007c.323-.266.646-.551.969-.817.4-.342.836-.684,1.273-1.026l.551-.456q.969-.8,2.053-1.654h0c.285-.209.551-.437.817-.646.247-.228.494-.437.722-.665a8.658,8.658,0,0,0,.608-.646,2.044,2.044,0,0,0,.3-.437l1.121-2.3.019-.038h1.255l-.038.1-3.345,7.09h0a1.161,1.161,0,0,0-.1.228l-.019.019c-.019.038-.019.057-.038.1v.057a.275.275,0,0,0,.038.133h0c.019.019.019.038.038.038h.019a1.3,1.3,0,0,0,.418-.209c.228-.133.532-.342.931-.627h0c.38-.266.817-.589,1.293-.969q.713-.542,1.6-1.255l.057-.114.038-.076a6.227,6.227,0,0,1,.456-.855,6.575,6.575,0,0,1,.646-.836h0a9.352,9.352,0,0,1,1.369-1.235,9.854,9.854,0,0,1,3.307-1.559,7.04,7.04,0,0,1,1.654-.209,6.188,6.188,0,0,1,.627.038c.19.019.38.057.57.1a2.711,2.711,0,0,1,.513.171,3.313,3.313,0,0,1,.513.266l.038.019v.038l-.057.969v.114l-.1-.057c-.171-.114-.342-.209-.513-.3h0c-.171-.076-.342-.152-.513-.209h0a2.41,2.41,0,0,0-.532-.114,5.391,5.391,0,0,0-.57-.038,6.34,6.34,0,0,0-1.426.171,8.382,8.382,0,0,0-1.5.532,8.9,8.9,0,0,0-1.388.817,7.019,7.019,0,0,0-1.1,1.007,4.705,4.705,0,0,0-.532.722,5.8,5.8,0,0,0-.4.76h0a3.943,3.943,0,0,0-.247.76,3.271,3.271,0,0,0-.076.741,3.08,3.08,0,0,0,.1.76h0a1.586,1.586,0,0,0,.266.57h0a1.091,1.091,0,0,0,.418.361,1.132,1.132,0,0,0,.513.114,1.558,1.558,0,0,0,.836-.3,6.167,6.167,0,0,0,1.064-.931h0a24.086,24.086,0,0,0,1.521-1.9q.941-1.255,2.224-3.136l.019-.038h.038l1.007.1h.1l-.038.076-2.414,5.17-.057.171h0l-.019.057h0a.207.207,0,0,0-.019.1v.057a.2.2,0,0,0,.038.114h0l.038.038h.019a2.462,2.462,0,0,0,.855-.266h0a2.36,2.36,0,0,0,.722-.551c.152-.171.3-.342.437-.494s.266-.285.38-.4c.019-.038.038-.057.057-.1h0a.334.334,0,0,1,.076-.1c1.958-1.92,3.555-2.376,4.942-2.129a7.986,7.986,0,0,1,3.573,2.015c.931.76,1.768,1.426,2.471,1.236.874-.247,1.882-1.635,2.832-2.984.323-.456.646-.893.95-1.312a10.963,10.963,0,0,1,.95-1.064.73.73,0,0,1,.475-.171.607.607,0,0,1,.456.209.73.73,0,0,1,.171.475.607.607,0,0,1-.209.456,8.731,8.731,0,0,0-.836.95c-.285.38-.589.8-.893,1.216a22.439,22.439,0,0,1-1.673,2.167,4.212,4.212,0,0,1-1.863,1.312c-1.331.38-2.433-.494-3.63-1.483a6.808,6.808,0,0,0-2.87-1.635c-1.083-.19-2.357.152-3.9,1.673a.334.334,0,0,1-.095.076h0c-.038.019-.057.038-.1.057l-.038.038a10.438,10.438,0,0,1-2.927,2.186,2.681,2.681,0,0,1-1.464.247c-.057-.019-.133-.038-.19-.057a1.153,1.153,0,0,1-.19-.133h0a.785.785,0,0,1-.133-.209h0a.964.964,0,0,1-.038-.247.585.585,0,0,1,.019-.171h0a1.752,1.752,0,0,1,.076-.247,1.215,1.215,0,0,1,.114-.3h0a2.7,2.7,0,0,1,.152-.342h0l.532-1.216a12.525,12.525,0,0,1-.779,1.007,7.944,7.944,0,0,1-1.026,1.064h0a3.7,3.7,0,0,1-.95.589,2.452,2.452,0,0,1-.95.209,1.994,1.994,0,0,1-.893-.209h0a2.113,2.113,0,0,1-.7-.608h0a2.6,2.6,0,0,1-.456-.95,4.539,4.539,0,0,1-.152-1.178h0v-.209l.095-.038ZM889.9,485.386a2.84,2.84,0,0,0,.4.038c.133,0,.266.019.418.019a4.972,4.972,0,0,0,3.193-1.159,3.132,3.132,0,0,0,1.464-2.262.59.59,0,0,0-.209-.475.832.832,0,0,0-.551-.171,4.108,4.108,0,0,0-2.395,1.14,8.873,8.873,0,0,0-2.319,2.87Zm-2.015-3.935Zm0,0ZM921.817,479a.9.9,0,0,0,.456-.114,1.028,1.028,0,0,0,.361-.342,1.621,1.621,0,0,0,.247-.475,1.8,1.8,0,0,0,.076-.57,1.119,1.119,0,0,0-.038-.266.783.783,0,0,0-.133-.209.844.844,0,0,0-.209-.152.6.6,0,0,0-.266-.038.684.684,0,0,0-.418.133,1.665,1.665,0,0,0-.38.361,1.784,1.784,0,0,0-.266.494,1.648,1.648,0,0,0-.1.532,1.123,1.123,0,0,0,.038.266h0a.786.786,0,0,0,.133.209h0a.491.491,0,0,0,.209.133h0A1.291,1.291,0,0,0,921.817,479Z" transform="translate(-866.2 -471.7)" fill="#f56600"/>
    </g>
  </g>
</svg>
